<svg width="42" height="42" viewBox="0 0 42 42" fill="none" xmlns="http://www.w3.org/2000/svg">
<path d="M19.6875 29.75H12.25C9.82917 29.75 7.76562 28.8969 6.05938 27.1906C4.35313 25.4844 3.5 23.4208 3.5 21C3.5 18.5792 4.35313 16.5156 6.05938 14.8094C7.76562 13.1031 9.82917 12.25 12.25 12.25H19.6875V14.875H12.25C10.5583 14.875 9.11458 15.4729 7.91875 16.6687C6.72292 17.8646 6.125 19.3083 6.125 21C6.125 22.6917 6.72292 24.1354 7.91875 25.3313C9.11458 26.5271 10.5583 27.125 12.25 27.125H19.6875V29.75ZM14.2188 22.3125V19.6875H27.7812V22.3125H14.2188ZM22.3125 29.75V27.125H29.75C31.4417 27.125 32.8854 26.5271 34.0813 25.3313C35.2771 24.1354 35.875 22.6917 35.875 21C35.875 19.3083 35.2771 17.8646 34.0813 16.6687C32.8854 15.4729 31.4417 14.875 29.75 14.875H22.3125V12.25H29.75C32.1708 12.25 34.2344 13.1031 35.9406 14.8094C37.6469 16.5156 38.5 18.5792 38.5 21C38.5 23.4208 37.6469 25.4844 35.9406 27.1906C34.2344 28.8969 32.1708 29.75 29.75 29.75H22.3125Z" fill="black"/>
</svg>
