<svg width="42" height="42" viewBox="0 0 42 42" fill="none" xmlns="http://www.w3.org/2000/svg">
<path d="M31.8062 38.5C30.4354 38.5 29.2615 38.0115 28.2844 37.0344C27.3073 36.0573 26.8188 34.8833 26.8188 33.5125C26.8188 33.3083 26.8406 33.0677 26.8844 32.7906C26.9281 32.5135 26.9938 32.2583 27.0813 32.025L13.825 24.325C13.3875 24.8208 12.8479 25.2219 12.2062 25.5281C11.5646 25.8344 10.9083 25.9875 10.2375 25.9875C8.86667 25.9875 7.69271 25.499 6.71563 24.5219C5.73854 23.5448 5.25 22.3708 5.25 21C5.25 19.6 5.73854 18.4188 6.71563 17.4563C7.69271 16.4938 8.86667 16.0125 10.2375 16.0125C10.9083 16.0125 11.55 16.1438 12.1625 16.4062C12.775 16.6687 13.3292 17.0479 13.825 17.5437L27.0813 9.93125C26.9938 9.72708 26.9281 9.49375 26.8844 9.23125C26.8406 8.96875 26.8188 8.72083 26.8188 8.4875C26.8188 7.0875 27.3073 5.90625 28.2844 4.94375C29.2615 3.98125 30.4354 3.5 31.8062 3.5C33.2062 3.5 34.3875 3.98125 35.35 4.94375C36.3125 5.90625 36.7937 7.0875 36.7937 8.4875C36.7937 9.85833 36.3125 11.0323 35.35 12.0094C34.3875 12.9865 33.2062 13.475 31.8062 13.475C31.1354 13.475 30.4865 13.3656 29.8594 13.1469C29.2323 12.9281 28.7 12.5708 28.2625 12.075L15.0062 19.425C15.0646 19.6583 15.1156 19.9281 15.1594 20.2344C15.2031 20.5406 15.225 20.7958 15.225 21C15.225 21.2042 15.2031 21.4229 15.1594 21.6562C15.1156 21.8896 15.0646 22.1229 15.0062 22.3562L28.2625 29.8813C28.7 29.4729 29.2104 29.1448 29.7937 28.8969C30.3771 28.649 31.0479 28.525 31.8062 28.525C33.2062 28.525 34.3875 29.0063 35.35 29.9688C36.3125 30.9312 36.7937 32.1125 36.7937 33.5125C36.7937 34.8833 36.3125 36.0573 35.35 37.0344C34.3875 38.0115 33.2062 38.5 31.8062 38.5ZM31.8062 10.85C32.4771 10.85 33.0385 10.624 33.4906 10.1719C33.9427 9.71979 34.1687 9.15833 34.1687 8.4875C34.1687 7.81667 33.9427 7.25521 33.4906 6.80313C33.0385 6.35104 32.4771 6.125 31.8062 6.125C31.1354 6.125 30.574 6.35104 30.1219 6.80313C29.6698 7.25521 29.4438 7.81667 29.4438 8.4875C29.4438 9.15833 29.6698 9.71979 30.1219 10.1719C30.574 10.624 31.1354 10.85 31.8062 10.85ZM10.2375 23.3625C10.9083 23.3625 11.4698 23.1365 11.9219 22.6844C12.374 22.2323 12.6 21.6708 12.6 21C12.6 20.3292 12.374 19.7677 11.9219 19.3156C11.4698 18.8635 10.9083 18.6375 10.2375 18.6375C9.56667 18.6375 9.00521 18.8635 8.55312 19.3156C8.10104 19.7677 7.875 20.3292 7.875 21C7.875 21.6708 8.10104 22.2323 8.55312 22.6844C9.00521 23.1365 9.56667 23.3625 10.2375 23.3625ZM31.8062 35.875C32.4771 35.875 33.0385 35.649 33.4906 35.1969C33.9427 34.7448 34.1687 34.1833 34.1687 33.5125C34.1687 32.8417 33.9427 32.2802 33.4906 31.8281C33.0385 31.376 32.4771 31.15 31.8062 31.15C31.1354 31.15 30.574 31.376 30.1219 31.8281C29.6698 32.2802 29.4438 32.8417 29.4438 33.5125C29.4438 34.1833 29.6698 34.7448 30.1219 35.1969C30.574 35.649 31.1354 35.875 31.8062 35.875Z" fill="black"/>
</svg>
